<?xml version="1.0" encoding="UTF-8"?>
<svg
  xmlns="http://www.w3.org/2000/svg"
  viewBox="0 0 1000 700"
  role="img"
  aria-labelledby="title description"
>
  <title id="title">Circuit of the Americas</title>
  <desc id="description">Tracé normalisé pour YamScore. Source géométrique : https://raw.githubusercontent.com/bacinger/f1-circuits/master/circuits/us-2012.geojson</desc>

  <path
    d="M233.52 511.47 L313.88 575.53 L336.07 591.07 L353.26 601.30 L359.63 604.33 L362.11 605.09 L364.87 604.61 L367.35 603.09 L369.04 600.54 L369.88 598.22 L369.60 595.40 L352.13 545.15 L344.36 521.92 L343.00 514.77 L342.72 508.65 L343.00 501.51 L344.36 494.85 L346.84 486.45 L350.73 479.31 L354.90 472.92 L360.70 466.26 L367.07 461.65 L375.69 456.29 L422.52 427.22 L441.67 415.19 L445.79 411.13 L449.40 406.26 L452.44 402.20 L454.97 396.57 L456.89 391.75 L461.90 377.72 L465.23 373.12 L469.40 367.76 L474.92 364.19 L479.37 361.86 L490.42 357.53 L499.04 353.19 L504.00 349.35 L507.09 345.56 L509.86 340.42 L510.93 334.30 L512.62 323.85 L513.46 317.19 L515.10 309.82 L517.35 304.46 L520.11 299.32 L523.72 294.23 L527.61 289.62 L533.41 284.53 L540.06 279.66 L547.27 275.60 L555.00 272.30 L561.70 270.73 L567.22 270.51 L571.67 270.73 L578.88 272.78 L624.87 293.96 L629.32 295.74 L634.00 295.74 L637.61 294.23 L646.79 288.60 L657.56 279.93 L665.33 272.03 L673.11 261.58 L678.91 254.70 L684.20 250.58 L690.01 248.04 L694.46 247.01 L700.83 247.01 L708.04 249.07 L713.57 252.10 L718.02 256.49 L720.50 259.52 L722.98 263.36 L725.23 267.69 L728.55 271.27 L732.44 272.78 L736.28 272.78 L819.17 254.43 L824.46 252.64 L827.79 250.85 L830.27 248.53 L878.78 189.61 L921.44 138.01 L937.79 117.11 L944.48 104.87 L945.00 101.78 L944.20 98.97 L942.24 97.45 L939.76 95.67 L936.99 94.91 L933.95 95.12 L929.78 96.15 L841.08 124.53 L779.27 141.85 L711.09 158.42 L629.60 174.78 L578.60 183.22 L531.45 190.10 L392.60 205.42 L377.10 208.24 L375.13 209.49 L374.29 212.03 L374.57 214.09 L376.53 216.90 L385.67 227.08 L417.28 270.51 L431.14 292.98 L431.98 296.28 L431.14 301.10 L429.17 304.46 L425.56 307.01 L422.52 307.76 L416.71 308.52 L390.96 306.46 L388.43 305.22 L386.23 303.16 L384.03 300.62 L382.06 297.04 L376.81 282.75 L374.57 277.12 L370.96 272.03 L354.05 254.70 L351.57 252.64 L348.53 251.34 L345.49 250.85 L328.86 249.34 L325.54 249.55 L323.57 250.85 L321.65 253.13 L320.81 256.22 L321.93 259.79 L354.05 315.18 L367.07 339.66 L368.20 346.32 L367.92 352.92 L366.84 358.28 L365.43 363.65 L361.83 373.61 L356.82 384.60 L353.49 388.93 L347.97 392.99 L341.60 396.08 L315.28 408.05 L309.99 409.35 L304.74 409.62 L295.05 408.86 L285.87 407.56 L277.02 404.74 L267.33 400.90 L258.71 395.81 L252.90 391.48 L249.02 384.87 L218.81 342.47 L195.26 312.85 L192.21 309.82 L188.61 308.25 L183.88 307.28 L179.71 307.49 L173.90 309.06 L166.97 311.34 L161.16 313.61 L63.85 356.28 L58.32 360.07 L56.12 363.65 L55.00 367.49 L56.12 370.31 L58.32 372.85 L61.09 375.40 L112.09 416.49 L233.52 511.47"
    fill="none"
    stroke="#000000"
    stroke-opacity="0.46"
    stroke-width="32"
    stroke-linecap="round"
    stroke-linejoin="round"
  />

  <path
    d="M233.52 511.47 L313.88 575.53 L336.07 591.07 L353.26 601.30 L359.63 604.33 L362.11 605.09 L364.87 604.61 L367.35 603.09 L369.04 600.54 L369.88 598.22 L369.60 595.40 L352.13 545.15 L344.36 521.92 L343.00 514.77 L342.72 508.65 L343.00 501.51 L344.36 494.85 L346.84 486.45 L350.73 479.31 L354.90 472.92 L360.70 466.26 L367.07 461.65 L375.69 456.29 L422.52 427.22 L441.67 415.19 L445.79 411.13 L449.40 406.26 L452.44 402.20 L454.97 396.57 L456.89 391.75 L461.90 377.72 L465.23 373.12 L469.40 367.76 L474.92 364.19 L479.37 361.86 L490.42 357.53 L499.04 353.19 L504.00 349.35 L507.09 345.56 L509.86 340.42 L510.93 334.30 L512.62 323.85 L513.46 317.19 L515.10 309.82 L517.35 304.46 L520.11 299.32 L523.72 294.23 L527.61 289.62 L533.41 284.53 L540.06 279.66 L547.27 275.60 L555.00 272.30 L561.70 270.73 L567.22 270.51 L571.67 270.73 L578.88 272.78 L624.87 293.96 L629.32 295.74 L634.00 295.74 L637.61 294.23 L646.79 288.60 L657.56 279.93 L665.33 272.03 L673.11 261.58 L678.91 254.70 L684.20 250.58 L690.01 248.04 L694.46 247.01 L700.83 247.01 L708.04 249.07 L713.57 252.10 L718.02 256.49 L720.50 259.52 L722.98 263.36 L725.23 267.69 L728.55 271.27 L732.44 272.78 L736.28 272.78 L819.17 254.43 L824.46 252.64 L827.79 250.85 L830.27 248.53 L878.78 189.61 L921.44 138.01 L937.79 117.11 L944.48 104.87 L945.00 101.78 L944.20 98.97 L942.24 97.45 L939.76 95.67 L936.99 94.91 L933.95 95.12 L929.78 96.15 L841.08 124.53 L779.27 141.85 L711.09 158.42 L629.60 174.78 L578.60 183.22 L531.45 190.10 L392.60 205.42 L377.10 208.24 L375.13 209.49 L374.29 212.03 L374.57 214.09 L376.53 216.90 L385.67 227.08 L417.28 270.51 L431.14 292.98 L431.98 296.28 L431.14 301.10 L429.17 304.46 L425.56 307.01 L422.52 307.76 L416.71 308.52 L390.96 306.46 L388.43 305.22 L386.23 303.16 L384.03 300.62 L382.06 297.04 L376.81 282.75 L374.57 277.12 L370.96 272.03 L354.05 254.70 L351.57 252.64 L348.53 251.34 L345.49 250.85 L328.86 249.34 L325.54 249.55 L323.57 250.85 L321.65 253.13 L320.81 256.22 L321.93 259.79 L354.05 315.18 L367.07 339.66 L368.20 346.32 L367.92 352.92 L366.84 358.28 L365.43 363.65 L361.83 373.61 L356.82 384.60 L353.49 388.93 L347.97 392.99 L341.60 396.08 L315.28 408.05 L309.99 409.35 L304.74 409.62 L295.05 408.86 L285.87 407.56 L277.02 404.74 L267.33 400.90 L258.71 395.81 L252.90 391.48 L249.02 384.87 L218.81 342.47 L195.26 312.85 L192.21 309.82 L188.61 308.25 L183.88 307.28 L179.71 307.49 L173.90 309.06 L166.97 311.34 L161.16 313.61 L63.85 356.28 L58.32 360.07 L56.12 363.65 L55.00 367.49 L56.12 370.31 L58.32 372.85 L61.09 375.40 L112.09 416.49 L233.52 511.47"
    fill="none"
    stroke="#678DE9"
    stroke-width="18"
    stroke-linecap="round"
    stroke-linejoin="round"
  />
</svg>
